<?xml version="1.0" encoding="UTF-8"?>
<svg width="128px" height="56px" viewBox="0 0 128 56" version="1.1" xmlns="http://www.w3.org/2000/svg" xmlns:xlink="http://www.w3.org/1999/xlink">
    <!-- Generator: Sketch 48.2 (47327) - http://www.bohemiancoding.com/sketch -->
    <title>logo/primary</title>
    <desc>Created with Sketch.</desc>
    <defs>
        <path d="M127.750487,1.91146667 L127.750487,41.4151111 C127.750487,42.4708779 126.892004,43.3265778 125.83423,43.3265778 L81.7603119,43.3265778 L81.7603119,54.1582222 C81.7603119,55.213989 80.9024674,56.0696889 79.8440546,56.0696889 L1.91625731,56.0696889 C0.857844522,56.0696889 0,55.213989 0,54.1582222 L0,14.6545778 C0,13.5994482 0.857844522,12.7431111 1.91625731,12.7431111 L77.9277973,12.7431111 L77.9277973,1.91146667 C77.9277973,0.855699911 78.7862805,0 79.8440546,0 L125.83423,0 C126.892004,0 127.750487,0.855699911 127.750487,1.91146667 Z M115.126184,13.2528356 C115.126184,12.97185 114.896233,12.7431111 114.615821,12.7431111 L112.060811,12.7431111 C111.77976,12.7431111 111.549809,12.97185 111.549809,13.2528356 L111.549809,22.8337436 C111.549809,22.986661 111.370959,23.0376334 111.319858,22.8847161 L107.820134,13.2018631 C107.743484,12.97185 107.564633,12.7431111 107.181381,12.7431111 L104.141559,12.7431111 C103.861146,12.7431111 103.630557,12.97185 103.630557,13.2528356 L103.630557,30.0705564 C103.630557,30.3509049 103.861146,30.5802809 104.141559,30.5802809 L106.69593,30.5802809 C106.977619,30.5802809 107.206931,30.3509049 107.206931,30.0705564 L107.206931,21.2535979 C107.206931,21.1006805 107.385782,21.0503452 107.436882,21.2026254 L110.911696,30.1470151 C110.987707,30.3509049 111.166558,30.5802809 111.600909,30.5802809 L114.615821,30.5802809 C114.896233,30.5802809 115.126184,30.3509049 115.126184,30.0705564 L115.126184,13.2528356 Z M100.793218,27.6493653 C100.793218,27.369654 100.563906,27.140278 100.282216,27.140278 L98.1110968,27.140278 C97.9577962,27.140278 97.8555958,27.0389703 97.8555958,26.8854158 L97.8555958,16.4379762 C97.8555958,16.2850588 97.9577962,16.1824768 98.1110968,16.1824768 L100.027354,16.1824768 C100.307766,16.1824768 100.537717,15.953738 100.537717,15.6733895 L100.537717,13.2528356 C100.537717,12.97185 100.307766,12.7431111 100.027354,12.7431111 L92.1081014,12.7431111 C91.8270503,12.7431111 91.5964607,12.97185 91.5964607,13.2528356 L91.5964607,15.6733895 C91.5964607,15.953738 91.8270503,16.1824768 92.1081014,16.1824768 L94.0237199,16.1824768 C94.1770205,16.1824768 94.2792209,16.2850588 94.2792209,16.4379762 L94.2792209,26.8854158 C94.2792209,27.0389703 94.1770205,27.140278 94.0237199,27.140278 L91.8526004,27.140278 C91.5715493,27.140278 91.3415984,27.369654 91.3415984,27.6493653 L91.3415984,30.0705564 C91.3415984,30.3509049 91.5715493,30.5802809 91.8526004,30.5802809 L100.282216,30.5802809 C100.563906,30.5802809 100.793218,30.3509049 100.793218,30.0705564 L100.793218,27.6493653 Z M77.9277973,16.5660444 L4.15189084,16.5660444 C3.97559517,16.5660444 3.83251462,16.7094044 3.83251462,16.8846222 L3.83251462,51.9281778 C3.83251462,52.1040327 3.97559517,52.2467556 4.15189084,52.2467556 L77.6084211,52.2467556 C77.7847167,52.2467556 77.9277973,52.1040327 77.9277973,51.9281778 L77.9277973,16.5660444 Z M66.6059103,39.755958 C66.8869614,39.755958 67.1169123,39.985334 67.1169123,40.2656825 L67.1169123,42.8136676 C67.1169123,43.094016 66.8869614,43.323392 66.6059103,43.323392 L57.2309408,43.323392 C56.9498897,43.323392 56.7199389,43.094016 56.7199389,42.8136676 L56.7199389,25.9959467 C56.7199389,25.7149611 56.9498897,25.4862222 57.2309408,25.4862222 L66.5037099,25.4862222 C66.784761,25.4862222 67.0147119,25.7149611 67.0147119,25.9959467 L67.0147119,28.5439317 C67.0147119,28.8242802 66.784761,29.0536562 66.5037099,29.0536562 L60.5518147,29.0536562 C60.3985142,29.0536562 60.295675,29.1556011 60.295675,29.3085184 L60.295675,32.3662279 C60.295675,32.5191452 60.3985142,32.6210901 60.5518147,32.6210901 L66.2993092,32.6210901 C66.5803602,32.6210901 66.8103111,32.8504661 66.8103111,33.1308146 L66.8103111,35.6787996 C66.8103111,35.9597852 66.5803602,36.1885241 66.2993092,36.1885241 L60.5518147,36.1885241 C60.3985142,36.1885241 60.295675,36.290469 60.295675,36.4433863 L60.295675,39.5010958 C60.295675,39.6540132 60.3985142,39.755958 60.5518147,39.755958 L66.6059103,39.755958 Z M53.3715986,25.4862222 C53.6520109,25.4862222 53.8819618,25.7149611 53.8819618,25.9959467 L53.8819618,42.8136676 C53.8819618,43.094016 53.6520109,43.323392 53.3715986,43.323392 L50.3566871,43.323392 C49.9223354,43.323392 49.7434848,43.094016 49.6674732,42.8901262 L46.19266,33.9457365 C46.1415598,33.7934564 45.9627091,33.8437916 45.9627091,33.996709 L45.9627091,42.8136676 C45.9627091,43.094016 45.733397,43.323392 45.4517071,43.323392 L42.8973361,43.323392 C42.6169238,43.323392 42.3863342,43.094016 42.3863342,42.8136676 L42.3863342,25.9959467 C42.3863342,25.7149611 42.6169238,25.4862222 42.8973361,25.4862222 L45.937159,25.4862222 C46.3210492,25.4862222 46.4992611,25.7149611 46.5759114,25.9449742 L50.075636,35.6278272 C50.127375,35.7807445 50.3055869,35.7297721 50.3055869,35.5768548 L50.3055869,25.9959467 C50.3055869,25.7149611 50.5355378,25.4862222 50.8165888,25.4862222 L53.3715986,25.4862222 Z M38.9613436,25.4862222 C39.2430335,25.4862222 39.4723456,25.7149611 39.4723456,25.9959467 L39.4723456,37.9725596 C39.4723456,41.0557554 36.9179746,43.6037404 33.3920611,43.6037404 C29.9185254,43.6037404 27.3635156,41.0557554 27.3635156,37.9725596 L27.3635156,25.9959467 C27.3635156,25.7149611 27.5934665,25.4862222 27.8751563,25.4862222 L30.4550774,25.4862222 C30.7354897,25.4862222 30.9660794,25.7149611 30.9660794,25.9959467 L30.9660794,37.9725596 C30.9660794,39.0933163 31.8852441,40.0108203 33.3920611,40.0108203 C34.9512558,40.0108203 35.8704206,39.0933163 35.8704206,37.9725596 L35.8704206,25.9959467 C35.8704206,25.7149611 36.1003715,25.4862222 36.3814225,25.4862222 L38.9613436,25.4862222 Z M24.9094288,25.9959467 L24.9094288,28.5439317 C24.9094288,28.8242802 24.6794779,29.0536562 24.3984268,29.0536562 L21.2053034,29.0536562 C21.0520028,29.0536562 20.9498024,29.1556011 20.9498024,29.3085184 L20.9498024,42.8136676 C20.9498024,43.094016 20.7192128,43.323392 20.4388005,43.323392 L17.8844295,43.323392 C17.6033784,43.323392 17.3734275,43.094016 17.3734275,42.8136676 L17.3734275,29.3085184 C17.3734275,29.1556011 17.2712271,29.0536562 17.1179265,29.0536562 L13.9248031,29.0536562 C13.6431133,29.0536562 13.4138012,28.8242802 13.4138012,28.5439317 L13.4138012,25.9959467 C13.4138012,25.7149611 13.6431133,25.4862222 13.9248031,25.4862222 L24.3984268,25.4862222 C24.6794779,25.4862222 24.9094288,25.7149611 24.9094288,25.9959467 Z" id="path-1"></path>
    </defs>
    <g id="footer/md" stroke="none" stroke-width="1" fill="none" fill-rule="evenodd" transform="translate(-190.000000, -64.000000)">
        <g id="logo/primary" transform="translate(190.000000, 64.000000)">
            <mask id="mask-2" fill="white">
                <use xlink:href="#path-1"></use>
            </mask>
            <g id="logo"></g>
            <g id="color/tsharp" mask="url(#mask-2)" fill="#14D8CC" fill-rule="evenodd">
                <rect id="Rectangle" x="0" y="0" width="128.501961" height="56.2196078"></rect>
            </g>
        </g>
    </g>
</svg>